<svg width="85" height="85" viewBox="0 0 85 85" fill="none" xmlns="http://www.w3.org/2000/svg">
<path d="M21.4211 45.4115H25.9042V60.3551H21.4211V45.4115ZM12.455 45.4115H18.4324V60.3551H12.455V45.4115ZM6.47751 66.3326V67.8269H57.2858V66.3326C57.2858 65.5399 56.9709 64.7797 56.4104 64.2192C55.8499 63.6587 55.0897 63.3438 54.2971 63.3438H9.46623C8.67357 63.3438 7.91338 63.6587 7.35289 64.2192C6.79239 64.7797 6.47751 65.5399 6.47751 66.3326ZM28.8929 45.4115H34.8704V60.3551H28.8929V45.4115Z" fill="#000D51"/>
<path d="M63.2633 72.2203V42.2584C60.2094 42.0589 57.2291 41.2344 54.507 39.836C51.7848 38.4377 49.3788 36.4952 47.438 34.1291L31.8817 25.8951L7.97187 38.5524V42.4228H52.8027C53.1991 42.4228 53.5792 42.5802 53.8594 42.8604C54.1396 43.1407 54.2971 43.5208 54.2971 43.9171V60.3551C55.8824 60.3551 57.4028 60.9849 58.5238 62.1059C59.6448 63.2268 60.2745 64.7472 60.2745 66.3326V67.8269C60.2722 68.6188 59.9565 69.3777 59.3965 69.9376C58.8366 70.4976 58.0777 70.8133 57.2858 70.8156H6.47751C5.68558 70.8133 4.92676 70.4976 4.36677 69.9376C3.80679 69.3777 3.49115 68.6188 3.48878 67.8269V66.3326C3.48878 64.7472 4.11855 63.2268 5.23954 62.1059C6.36053 60.9849 7.88091 60.3551 9.46623 60.3551V45.4115H7.97187C7.17994 45.4091 6.42112 45.0935 5.86114 44.5335C5.30115 43.9735 4.98551 43.2147 4.98315 42.4228V38.5524C4.98015 38.007 5.12788 37.4714 5.41004 37.0046C5.69219 36.5379 6.0978 36.1581 6.58211 35.9073L30.477 23.265C31.3586 22.7868 32.4196 22.7868 33.3013 23.265L44.3297 29.108C42.6724 25.4559 42.0336 21.4237 42.4808 17.4382C42.928 13.4527 44.4447 9.66235 46.8701 6.46841H3.48878C2.69685 6.47078 1.93803 6.78642 1.37805 7.3464C0.818068 7.90639 0.502426 8.66521 0.500061 9.45714V72.2203C0.502426 73.0123 0.818068 73.7711 1.37805 74.3311C1.93803 74.891 2.69685 75.2067 3.48878 75.2091H60.2745C61.0665 75.2067 61.8253 74.891 62.3853 74.3311C62.9452 73.7711 63.2609 73.0123 63.2633 72.2203ZM36.3647 37.9352H27.3986C27.0022 37.9352 26.6221 37.7777 26.3419 37.4975C26.0617 37.2173 25.9042 36.8372 25.9042 36.4408C25.9042 36.0445 26.0617 35.6644 26.3419 35.3842C26.6221 35.1039 27.0022 34.9465 27.3986 34.9465H36.3647C36.7611 34.9465 37.1412 35.1039 37.4214 35.3842C37.7017 35.6644 37.8591 36.0445 37.8591 36.4408C37.8591 36.8372 37.7017 37.2173 37.4214 37.4975C37.1412 37.7777 36.7611 37.9352 36.3647 37.9352ZM7.97187 12.4459H24.4098C24.8062 12.4459 25.1863 12.6033 25.4665 12.8835C25.7468 13.1638 25.9042 13.5439 25.9042 13.9402C25.9042 14.3366 25.7468 14.7166 25.4665 14.9969C25.1863 15.2771 24.8062 15.4346 24.4098 15.4346H7.97187C7.57554 15.4346 7.19544 15.2771 6.9152 14.9969C6.63495 14.7166 6.47751 14.3366 6.47751 13.9402C6.47751 13.5439 6.63495 13.1638 6.9152 12.8835C7.19544 12.6033 7.57554 12.4459 7.97187 12.4459ZM7.97187 18.4233H19.9268C20.3231 18.4233 20.7032 18.5807 20.9834 18.861C21.2637 19.1412 21.4211 19.5213 21.4211 19.9177C21.4211 20.314 21.2637 20.6941 20.9834 20.9743C20.7032 21.2546 20.3231 21.412 19.9268 21.412H7.97187C7.57554 21.412 7.19544 21.2546 6.9152 20.9743C6.63495 20.6941 6.47751 20.314 6.47751 19.9177C6.47751 19.5213 6.63495 19.1412 6.9152 18.861C7.19544 18.5807 7.57554 18.4233 7.97187 18.4233Z" fill="#000D51"/>
<path d="M66.252 72.2203C66.252 73.8057 65.6222 75.326 64.5012 76.447C63.3802 77.568 61.8599 78.1978 60.2745 78.1978H9.46623V81.1865C9.45557 81.5739 9.52431 81.9593 9.66823 82.3191C9.81215 82.6789 10.0282 83.0055 10.3031 83.2786C10.8679 83.8584 11.645 84.1827 12.455 84.1752H69.2407C70.0326 84.1729 70.7915 83.8572 71.3514 83.2972C71.9114 82.7373 72.2271 81.9784 72.2294 81.1865V41.0181C70.3032 41.7055 68.2918 42.1239 66.252 42.2584V72.2203Z" fill="#000D51"/>
<path d="M37.8591 45.4115H42.3422V60.3551H37.8591V45.4115ZM64.7576 0.490967C54.0281 0.490967 45.3309 9.18815 45.3309 19.9177C45.3309 30.6472 54.0281 39.3444 64.7576 39.3444C75.4871 39.3444 84.1843 30.6472 84.1843 19.9177C84.1739 9.19264 75.4827 0.501427 64.7576 0.490967ZM59.6902 30.0674C59.4028 30.2884 59.0449 30.3973 58.683 30.374C58.3212 30.3506 57.9803 30.1965 57.7237 29.9404L51.7462 23.9629C51.474 23.6811 51.3234 23.3036 51.3268 22.9118C51.3302 22.52 51.4873 22.1452 51.7644 21.8681C52.0415 21.591 52.4163 21.4339 52.8081 21.4305C53.1999 21.427 53.5774 21.5777 53.8592 21.8499L58.9087 26.8993L77.2968 12.7567C77.4512 12.627 77.6303 12.5299 77.8232 12.4712C78.0162 12.4126 78.219 12.3936 78.4195 12.4154C78.62 12.4372 78.814 12.4994 78.9898 12.5981C79.1656 12.6969 79.3196 12.8302 79.4425 12.9901C79.5655 13.1499 79.6548 13.333 79.705 13.5283C79.7553 13.7236 79.7656 13.9271 79.7352 14.1264C79.7047 14.3258 79.6343 14.5169 79.528 14.6883C79.4218 14.8597 79.282 15.0078 79.1169 15.1238L59.6902 30.0674ZM45.3309 45.4115H51.3084V60.3551H45.3309V45.4115Z" fill="#000D51"/>
</svg>
