<svg width="80" height="79" viewBox="0 0 80 79" fill="none" xmlns="http://www.w3.org/2000/svg">
<path d="M23.1753 33.2279H56.8412C57.1456 33.2279 57.4375 33.107 57.6527 32.8918C57.868 32.6766 57.9889 32.3846 57.9889 32.0802C57.9889 31.7759 57.868 31.4839 57.6527 31.2687C57.4375 31.0535 57.1456 30.9325 56.8412 30.9325H23.1753C22.8709 30.9325 22.579 31.0535 22.3637 31.2687C22.1485 31.4839 22.0276 31.7759 22.0276 32.0802C22.0276 32.3846 22.1485 32.6766 22.3637 32.8918C22.579 33.107 22.8709 33.2279 23.1753 33.2279ZM54.9283 28.6371V16.0185L40.0082 7.98923L25.0881 16.0201V28.6371H34.1259V24.9645C34.1259 23.4044 34.7456 21.9082 35.8488 20.805C36.9519 19.7019 38.4481 19.0821 40.0082 19.0821C41.5683 19.0821 43.0645 19.7019 44.1677 20.805C45.2708 21.9082 45.8906 23.4044 45.8906 24.9645V28.6371H54.9283Z" fill="#000D51"/>
<path d="M36.4213 24.9645V28.6371H43.5952V24.9645C43.5952 24.0132 43.2173 23.1008 42.5446 22.4281C41.8719 21.7555 40.9595 21.3776 40.0082 21.3776C39.0569 21.3776 38.1446 21.7555 37.4719 22.4281C36.7992 23.1008 36.4213 24.0132 36.4213 24.9645ZM40.5515 5.68312L57.9965 15.0667V10.5341C57.9963 10.3268 57.9401 10.1235 57.8336 9.94569C57.7272 9.76787 57.5746 9.62218 57.3921 9.52409L40.5515 0.464902C40.3847 0.374497 40.1979 0.327148 40.0082 0.327148C39.8185 0.327148 39.6318 0.374497 39.465 0.464902L22.632 9.52409C22.4495 9.62218 22.2969 9.76787 22.1905 9.94569C22.084 10.1235 22.0278 10.3268 22.0276 10.5341V15.0591L39.465 5.68312C39.6318 5.59271 39.8185 5.54536 40.0082 5.54536C40.1979 5.54536 40.3847 5.59271 40.5515 5.68312ZM38.2851 69.1112C37.8861 68.7129 37.4067 68.4044 36.8789 68.2062C36.3512 68.008 35.7871 67.9248 35.2246 67.962C35.1985 67.4368 35.0682 66.9221 34.8412 66.4478C34.6142 65.9735 34.295 65.5492 33.9023 65.1995C33.5096 64.8499 33.0513 64.5819 32.554 64.4111C32.0566 64.2404 31.5303 64.1704 31.0057 64.2052C30.9804 63.6801 30.8507 63.1653 30.6241 62.6909C30.3976 62.2165 30.0787 61.7921 29.6861 61.4424C29.2936 61.0928 28.8352 60.8249 28.3379 60.6545C27.8406 60.484 27.3143 60.4145 26.7898 60.4499C26.7515 59.6838 26.4917 58.9453 26.0418 58.324C25.592 57.7028 24.9715 57.2254 24.2556 56.95C23.5398 56.6745 22.7593 56.6128 22.0091 56.7723C21.2588 56.9318 20.571 57.3056 20.029 57.8484L17.2302 60.6473C16.6756 61.2015 16.2979 61.9077 16.1448 62.6767C15.9916 63.4456 16.07 64.2426 16.3699 64.967C16.6699 65.6914 17.1779 66.3105 17.8298 66.7461C18.4817 67.1817 19.2481 67.4142 20.0321 67.4141C20.1193 67.4141 20.205 67.4141 20.2922 67.4034C20.3425 68.4181 20.7811 69.3746 21.5172 70.0748C22.2533 70.775 23.2305 71.1653 24.2465 71.1648C24.3322 71.1648 24.4194 71.1648 24.5051 71.1556C24.5542 72.1717 24.9928 73.1298 25.7297 73.831C26.4665 74.5323 27.4451 74.9228 28.4624 74.9216C28.548 74.9216 28.6337 74.9216 28.7194 74.9109C28.7587 75.6767 29.0192 76.4146 29.4694 77.0353C29.9195 77.656 30.5399 78.1329 31.2555 78.4082C31.9712 78.6835 32.7513 78.7454 33.5013 78.5864C34.2514 78.4274 34.9393 78.0543 35.4817 77.5124L38.2821 74.7135C39.0234 73.97 39.44 72.963 39.4406 71.913C39.4411 70.863 39.0257 69.8556 38.2851 69.1112Z" fill="#000D51"/>
<path d="M60.6668 63.0513L51.222 56.2493C49.8483 56.6553 48.4248 56.8685 46.9924 56.8828C45.2262 56.9004 43.4816 56.4932 41.9058 55.6953C40.4897 54.9614 39.2549 53.9211 38.2913 52.6501L34.5758 54.9776C33.1741 55.8513 31.5408 56.2802 29.8907 56.2078C28.2407 56.1354 26.6512 55.5652 25.3314 54.5721C24.5491 53.9812 23.9153 53.2161 23.4804 52.3374C23.0455 51.4587 22.8215 50.4908 22.8261 49.5104C22.8307 48.53 23.0638 47.5642 23.5069 46.6896C23.9501 45.8151 24.591 45.0559 25.3789 44.4724L33.4281 38.5043C32.4878 38.2309 31.5135 38.0923 30.5343 38.0927H21.7705C21.7353 38.1952 21.6986 38.2962 21.6572 38.3987L13.6999 57.5072C13.5719 57.8131 13.4135 58.1053 13.227 58.3794L15.0817 59.6205C15.2446 59.4051 15.4214 59.2006 15.6112 59.0084L18.41 56.2095C19.1446 55.475 20.0505 54.9349 21.0458 54.6377C22.0412 54.3405 23.0949 54.2956 24.112 54.5071C25.129 54.7185 26.0775 55.1797 26.8719 55.849C27.6664 56.5183 28.2818 57.3748 28.6628 58.3412C29.7299 58.6225 30.7028 59.1829 31.4816 59.9648C32.088 60.5725 32.5635 61.2979 32.8787 62.0965C33.8267 62.3492 34.7022 62.8207 35.4349 63.4732C36.1676 64.1256 36.7371 64.9408 37.0977 65.8533C38.1604 66.1365 39.1297 66.6947 39.9082 67.4716C40.6866 68.2484 41.2468 69.2167 41.5322 70.2788C41.8176 71.3409 41.8183 72.4595 41.5341 73.5219C41.2499 74.5844 40.6909 75.5532 39.9134 76.331L39.0074 77.2369L39.4818 77.5935C40.3164 78.213 41.3453 78.5131 42.382 78.4392C43.4188 78.3654 44.3948 77.9226 45.1331 77.191L45.3458 76.9799C46.0435 76.2846 46.482 75.3714 46.5884 74.3922C47.3558 74.6573 48.1822 74.7017 48.9735 74.5201C49.7649 74.3386 50.4893 73.9385 51.0644 73.3654L51.3552 73.0746C52.077 72.3544 52.5204 71.4019 52.6069 70.3859C53.373 70.6512 54.1984 70.6951 54.9883 70.5123C55.7782 70.3296 56.5005 69.9278 57.0723 69.353L57.3431 69.0806C58.0393 68.3832 58.477 67.4694 58.5842 66.4899C59.3228 66.6944 60.1024 66.7002 60.844 66.5067C61.5857 66.3133 62.2631 65.9274 62.8077 65.3881L62.9607 65.235C63.4671 64.7296 63.8395 64.1058 64.0442 63.4201C63.4975 63.6567 62.8988 63.7471 62.3067 63.6824C61.7146 63.6178 61.1495 63.4003 60.6668 63.0513ZM18.2264 34.0818L11.7396 30.9754C11.5997 30.9083 11.4477 30.8703 11.2927 30.8637C11.1377 30.8571 10.983 30.882 10.8379 30.9369C10.6928 30.9919 10.5604 31.0757 10.4487 31.1833C10.3369 31.2909 10.2482 31.4201 10.1879 31.563L0.925174 53.4122C0.809426 53.6837 0.802896 53.9894 0.906944 54.2657C1.01099 54.5419 1.2176 54.7673 1.48372 54.895L7.9537 58.0061C8.28041 58.1633 8.63573 58.2523 8.99798 58.2678C9.36024 58.2832 9.72184 58.2247 10.0608 58.0959C10.3997 57.967 10.7088 57.7705 10.9693 57.5183C11.2297 57.266 11.4361 56.9634 11.5758 56.6288L19.5332 37.5204C19.798 36.889 19.8101 36.18 19.5668 35.54C19.3236 34.9 18.8437 34.3779 18.2264 34.0818Z" fill="#000D51"/>
<path d="M58.3837 37.9259L56.1082 38.6696L44.5485 36.4997C43.3996 36.2867 42.2192 36.3127 41.0808 36.576C39.9424 36.8392 38.8704 37.3342 37.9316 38.0299L26.7469 46.3301C26.2469 46.7015 25.8401 47.1842 25.5589 47.7399C25.2778 48.2957 25.1298 48.9093 25.1268 49.5322C25.1239 50.1551 25.266 50.7701 25.5418 51.3285C25.8177 51.8869 26.2198 52.3735 26.7163 52.7496C27.6648 53.4616 28.8064 53.8703 29.9912 53.9222C31.1761 53.9741 32.349 53.6667 33.3561 53.0403L39.0181 49.487C39.6302 50.7526 40.8131 52.5644 42.9463 53.6601C45.3336 54.8843 48.2487 54.9073 51.6168 53.7182L61.9997 61.1967C62.1927 61.3352 62.4238 61.4106 62.6614 61.4125C62.8989 61.4144 63.1312 61.3427 63.3265 61.2074L66.9578 58.684C66.5272 58.2242 66.188 57.6867 65.9585 57.1001L58.3837 37.9259ZM79.1066 53.2989L70.8095 31.6013C70.7022 31.3211 70.4896 31.094 70.2171 30.9685C69.9446 30.8429 69.6338 30.8289 69.3511 30.9295L62.0808 33.5218C61.7433 33.6422 61.4334 33.8294 61.1697 34.072C60.9059 34.3147 60.6937 34.608 60.5457 34.9344C60.3976 35.2608 60.3167 35.6136 60.3078 35.9719C60.2989 36.3302 60.3622 36.6866 60.4939 37.02L68.0917 56.2478C68.223 56.5804 68.42 56.8831 68.6708 57.138C68.9216 57.3928 69.2211 57.5946 69.5515 57.7313C69.882 57.8679 70.2365 57.9367 70.5941 57.9334C70.9516 57.9301 71.3049 57.8549 71.6328 57.7122L78.4899 54.7558C78.7602 54.6387 78.975 54.4221 79.0899 54.1508C79.2047 53.8796 79.2107 53.5745 79.1066 53.2989Z" fill="#000D51"/>
</svg>
