<svg width="92" height="89" viewBox="0 0 92 89" fill="none" xmlns="http://www.w3.org/2000/svg">
<path d="M73.9874 50.2614C75.3819 49.0041 76.9438 48.0156 78.6179 47.3175V27.8049L54.3751 15.1046L30.1322 27.8049V46.8793C32.1483 46.9477 41.997 46.6889 43.7871 47.093V35.3349H64.9631V58.3952L73.9874 50.2614Z" fill="#000D51"/>
<path d="M57.344 60.6304H59.6201V40.6779H49.1301V48.9595C53.4133 51.355 56.5194 55.6133 57.344 60.6304ZM27.4607 23.1725C34.7291 19.3642 47.1186 12.8761 54.3751 9.07421C64.2549 14.2498 77.536 21.206 87.3751 26.3605V17.5357C84.2293 15.8883 77.9793 12.6143 74.7674 10.9318V3.11144H69.4245V8.13206L54.3751 0.24939C50.7185 2.16485 24.308 16 21.3751 17.5357V26.3605C22.8763 25.5744 25.9761 23.9508 27.4607 23.1725Z" fill="#000D51"/>
<path d="M85.7205 51.4511C82.7548 51.2077 79.7638 52.225 77.5636 54.2313C73.8757 57.556 68.177 62.6906 64.5356 65.9734H33.5428V60.6304H51.8924C50.7251 55.7652 46.1341 52.1694 41.137 52.2223C35.1482 52.2244 25.8974 52.2207 19.9895 52.2223L14.5699 57.0595V82.2837L25.8329 75.6139H67.6025C74.4864 69.3095 84.7237 59.9377 91.5533 53.6827C89.8863 52.3933 87.8809 51.6186 85.7205 51.4511ZM0.500061 88.7505H9.22692V52.2223H0.500061V88.7505Z" fill="#000D51"/>
</svg>
