<svg width="76" height="76" viewBox="0 0 76 76" fill="none" xmlns="http://www.w3.org/2000/svg">
<path d="M71.1702 48.6634L37.712 28.0725L4.25382 48.6634C3.95394 48.8478 3.62068 48.9713 3.27307 49.0268C2.92546 49.0824 2.57031 49.069 2.2279 48.9873C1.88549 48.9056 1.56251 48.7573 1.27742 48.5508C0.99233 48.3443 0.750703 48.0837 0.566337 47.7838C0.381971 47.4839 0.258476 47.1506 0.202904 46.803C0.147331 46.4554 0.16077 46.1003 0.242451 45.7579C0.324132 45.4154 0.472457 45.0925 0.678957 44.8074C0.885457 44.5223 1.14609 44.2807 1.44597 44.0963L36.3094 22.6419C36.7319 22.3816 37.2184 22.2437 37.7147 22.2437C38.2109 22.2437 38.6974 22.3816 39.1199 22.6419L73.9834 44.0963C74.2833 44.281 74.5438 44.523 74.7502 44.8084C74.9566 45.0938 75.1047 45.4171 75.1861 45.7598C75.2676 46.1024 75.2807 46.4578 75.2248 46.8055C75.1689 47.1533 75.0451 47.4866 74.8604 47.7865C74.6756 48.0863 74.4337 48.3469 74.1482 48.5533C73.8628 48.7596 73.5396 48.9078 73.1969 48.9892C72.8542 49.0706 72.4989 49.0838 72.1511 49.0279C71.8034 48.972 71.4701 48.8481 71.1702 48.6634Z" fill="#000D51"/>
<path d="M44.4165 54.4239H31.0075C30.6519 54.4239 30.3108 54.5652 30.0593 54.8167C29.8079 55.0681 29.6666 55.4092 29.6666 55.7648V75.8784H10.894V49.299L37.712 32.7979L64.53 49.3017V75.8784H45.7574V55.7648C45.7574 55.4092 45.6161 55.0681 45.3647 54.8167C45.1132 54.5652 44.7721 54.4239 44.4165 54.4239ZM69.8937 0.787842V17.4955C69.8943 17.6648 69.8446 17.8305 69.7508 17.9715C69.6569 18.1124 69.5233 18.2223 69.3668 18.287C69.2103 18.3517 69.0381 18.3684 68.8721 18.3349C68.7061 18.3014 68.5539 18.2192 68.4347 18.0989L62.8781 12.5422L53.4917 21.9285C52.9631 22.4571 52.2729 22.7939 51.5309 22.8853C50.7889 22.9766 50.0377 22.8173 49.3966 22.4327L37.7335 15.4359L0.166748 38.5557V30.6846L35.9554 8.66162C36.4784 8.33899 37.0801 8.16656 37.6946 8.16325C38.3091 8.15994 38.9126 8.32587 39.4391 8.64285L50.6034 15.342L58.1393 7.80612L52.5826 2.24943C52.4627 2.12993 52.3809 1.97754 52.3476 1.81153C52.3143 1.64553 52.331 1.47338 52.3956 1.31688C52.4602 1.16038 52.5698 1.02657 52.7105 0.932396C52.8512 0.838221 53.0167 0.787913 53.186 0.787842H69.8937Z" fill="#000D51"/>
</svg>
