<svg width="81" height="89" viewBox="0 0 81 89" fill="none" xmlns="http://www.w3.org/2000/svg">
<path d="M34.1186 12.8962L32.6056 16.5406H35.6334L34.1186 12.8962Z" fill="white"/>
<path d="M22.9038 19.2128C24.803 19.2128 26.3427 17.5837 26.3427 15.574C26.3427 13.5642 24.803 11.9351 22.9038 11.9351C21.0045 11.9351 19.4649 13.5642 19.4649 15.574C19.4649 17.5837 21.0045 19.2128 22.9038 19.2128Z" fill="white"/>
<path d="M31.5556 80.8054V66.1943C30.8776 65.8842 30.3026 65.3862 29.8989 64.7593C29.4952 64.1324 29.2797 63.4029 29.2779 62.6573V59.6573H28.4075C26.6297 59.6573 25.1853 58.2128 25.1853 56.4165V52.7684C25.1853 51.5462 25.8519 50.4906 26.8334 49.9536V46.1017C26.8334 45.5832 26.926 45.0832 27.1112 44.6017H20.7964C20.0186 44.6017 19.4075 43.9906 19.4075 43.2128C19.4075 42.4536 20.0186 41.824 20.7964 41.824H30.1297C34.1112 39.324 39.0371 36.0462 43.4816 33.1203H42.0001C41.2223 33.1203 40.6112 32.4906 40.6112 31.7314C40.6112 30.9536 41.2223 30.3425 42.0001 30.3425H47.6853C49.389 29.2128 50.8519 28.2684 51.926 27.5832C52.5743 27.1784 53.3246 26.9669 54.0888 26.9735C54.8531 26.98 55.5996 27.2044 56.2408 27.6202L59.889 29.9906V4.58321C59.889 2.4721 58.1853 0.749878 56.0742 0.749878H4.00008C1.87045 0.749878 0.166748 2.4721 0.166748 4.58321V76.9721C0.166748 79.0832 1.88897 80.8054 4.00008 80.8054H31.5556ZM40.9631 11.4536C40.9631 10.7869 41.5001 10.2314 42.1668 10.2314H42.3519C42.7408 10.2314 43.0927 10.4165 43.3705 10.7684L48.3705 18.0091V11.1758C48.3705 10.6388 48.7964 10.2314 49.2964 10.2499C49.8149 10.2499 50.2223 10.6573 50.2223 11.1758V19.7128C50.2223 20.3795 49.6853 20.9165 49.0001 20.9165H48.8334C48.426 20.9165 48.0742 20.7128 47.8519 20.4165L42.8149 13.1388V19.9906C42.8149 20.5277 42.389 20.9165 41.889 20.9165C41.7667 20.9191 41.6452 20.8968 41.5317 20.8512C41.4182 20.8056 41.3151 20.7375 41.2286 20.651C41.1421 20.5645 41.074 20.4614 41.0284 20.3479C40.9828 20.2344 40.9605 20.1129 40.9631 19.9906V11.4536ZM29.3149 19.6017L32.9631 10.9906C33.1668 10.5277 33.5371 10.2314 34.0556 10.2314H34.1853C34.7038 10.2314 35.0742 10.5462 35.2779 10.9906L38.926 19.6017C39.2038 20.2869 38.7408 20.9165 38.0927 20.9165C37.7038 20.9165 37.389 20.6758 37.2223 20.361L36.3705 18.2869H31.8705L31.0186 20.3425C30.7038 21.0091 29.889 21.0832 29.4816 20.6388C29.2408 20.398 29.1482 20.0091 29.3149 19.6017ZM22.9075 10.1573C26.1297 10.1573 28.1482 12.4721 28.2038 15.5647C28.1482 18.7128 26.0927 20.9906 22.9075 20.9906C19.7593 20.9906 17.6667 18.8054 17.6112 15.5832C17.6667 12.3054 19.7964 10.1573 22.9075 10.1573ZM9.83342 11.1758C9.83342 10.6573 10.2408 10.2499 10.7593 10.2499C11.2593 10.2314 11.6853 10.6388 11.6853 11.1758V18.9906H16.0927C16.6112 18.9906 17.0186 19.4165 17.0186 19.9165C17.0186 20.4536 16.5927 20.8425 16.0927 20.8425H11.0186C10.3519 20.8425 9.83342 20.324 9.83342 19.6573V11.1758ZM10.2038 30.3425H35.1668C35.5351 30.3425 35.8884 30.4888 36.1488 30.7493C36.4093 31.0097 36.5556 31.363 36.5556 31.7314C36.5556 32.0997 36.4093 32.453 36.1488 32.7135C35.8884 32.9739 35.5351 33.1203 35.1668 33.1203H10.2038C9.83543 33.1203 9.48216 32.9739 9.22169 32.7135C8.96123 32.453 8.8149 32.0997 8.8149 31.7314C8.8149 31.363 8.96123 31.0097 9.22169 30.7493C9.48216 30.4888 9.83543 30.3425 10.2038 30.3425ZM10.2038 41.824H14.7038C15.4816 41.824 16.0927 42.4536 16.0927 43.2128C16.0927 43.9906 15.4816 44.6017 14.7038 44.6017H10.2038C10.0214 44.6017 9.84079 44.5658 9.67228 44.496C9.50377 44.4262 9.35066 44.3239 9.22169 44.1949C9.09272 44.066 8.99042 43.9129 8.92062 43.7443C8.85082 43.5758 8.8149 43.3952 8.8149 43.2128C8.8149 43.0305 8.85082 42.8498 8.92062 42.6813C8.99042 42.5128 9.09272 42.3597 9.22169 42.2308C9.35066 42.1018 9.50377 41.9995 9.67228 41.9297C9.84079 41.8599 10.0214 41.824 10.2038 41.824ZM8.8149 54.7128C8.8149 53.9536 9.44453 53.324 10.2038 53.324H20.7964C21.1647 53.324 21.518 53.4703 21.7785 53.7308C22.0389 53.9912 22.1853 54.3445 22.1853 54.7128C22.1853 55.0812 22.0389 55.4345 21.7785 55.6949C21.518 55.9554 21.1647 56.1017 20.7964 56.1017H10.2038C9.44453 56.1017 8.8149 55.4906 8.8149 54.7128ZM24.7408 72.7869C24.389 73.4721 23.5371 73.7314 22.8705 73.361C21.4242 72.5758 20.1168 70.7777 19.3334 71.1388C19.1797 71.2147 19.0242 71.3832 18.4445 71.8795C17.5556 72.6017 16.5371 72.8425 15.6482 72.5091C14.7964 72.1758 14.3519 71.4351 14.1112 71.0277L13.2408 69.5647C13.0186 71.1017 12.6667 72.6202 12.2223 74.1202C12.1702 74.2942 12.0842 74.4562 11.9694 74.5969C11.8546 74.7376 11.7131 74.8543 11.5532 74.9403C11.3932 75.0263 11.2179 75.0799 11.0372 75.0981C10.8565 75.1163 10.674 75.0986 10.5001 75.0462C10.3253 74.9953 10.1624 74.9102 10.0209 74.7957C9.87937 74.6812 9.76209 74.5396 9.67589 74.3793C9.58969 74.2189 9.5363 74.043 9.51883 73.8618C9.50136 73.6807 9.52017 73.4978 9.57415 73.324C10.2038 71.1943 10.6112 68.9906 10.7779 66.7869C10.8334 65.9536 11.426 65.2499 12.2408 65.0647C13.0742 64.8795 13.9075 65.2314 14.3334 65.9721L16.5001 69.6203C16.5186 69.6573 16.5556 69.7314 16.6112 69.7869C16.6297 69.7684 16.6482 69.7499 16.6853 69.7314C16.8927 69.5647 17.463 68.9165 18.2223 68.6017C20.9482 67.3851 23.0019 70.2647 24.1853 70.9165C24.8519 71.2684 25.1112 72.1203 24.7408 72.7869Z" fill="white"/>
<path d="M79.7112 52.3054H28.4149C28.2941 52.3054 28.1782 52.3534 28.0928 52.4389C28.0073 52.5243 27.9593 52.6402 27.9593 52.761V56.4202C27.9593 56.674 28.163 56.8777 28.4149 56.8777H79.7112C79.9631 56.8777 80.1667 56.674 80.1667 56.4202V52.761C80.1667 52.6402 80.1188 52.5243 80.0333 52.4389C79.9479 52.3534 79.832 52.3054 79.7112 52.3054ZM53.4075 29.9351C48.8334 32.824 37.3334 40.6388 30.1853 45.0832C29.8334 45.3054 29.6112 45.6758 29.6112 46.1017V49.5277H78.5001V46.0832C78.5001 45.6758 78.2964 45.2869 77.9631 45.0647L54.7223 29.9536C54.5283 29.824 54.3009 29.7533 54.0676 29.75C53.8343 29.7467 53.6051 29.811 53.4075 29.9351ZM57.5464 40.7665C57.5459 41.6925 57.1777 42.5804 56.5228 43.235C55.8678 43.8896 54.9798 44.2573 54.0538 44.2573C53.1314 44.2524 52.2484 43.8824 51.5981 43.2282C50.9477 42.5741 50.5829 41.689 50.5834 40.7665C50.5834 38.8591 52.1482 37.2962 54.0538 37.2962C55.9816 37.2962 57.5464 38.8591 57.5464 40.7665ZM78.5075 85.4721H76.0686V83.8554C76.0686 83.5568 75.95 83.2704 75.7388 83.0593C75.5277 82.8481 75.2413 82.7295 74.9427 82.7295H73.7945V63.7851H74.9427C75.5538 63.7851 76.0723 63.2851 76.0723 62.6554V59.6554H65.739V62.6554C65.739 63.2851 66.239 63.7851 66.8501 63.7851H67.9982V82.7295H66.8594C66.5607 82.7295 66.2743 82.8481 66.0632 83.0593C65.852 83.2704 65.7334 83.5568 65.7334 83.8554V85.4721H42.389V83.8554C42.389 83.5568 42.2703 83.2704 42.0592 83.0593C41.848 82.8481 41.5617 82.7295 41.263 82.7295H40.1279V63.7851H41.2575C41.8871 63.7851 42.3871 63.2851 42.3871 62.6554V59.6554H32.0538V62.6554C32.0538 63.2851 32.5538 63.7851 33.1834 63.7851H34.3316V82.7295H33.1797C32.8811 82.7295 32.5947 82.8481 32.3836 83.0593C32.1724 83.2704 32.0538 83.5568 32.0538 83.8554V85.4721H29.6186C29.2502 85.4721 28.897 85.6184 28.6365 85.8789C28.376 86.1394 28.2297 86.4926 28.2297 86.861C28.2297 87.2293 28.376 87.5826 28.6365 87.8431C28.897 88.1036 29.2502 88.2499 29.6186 88.2499H78.5075C78.8759 88.2499 79.2291 88.1036 79.4896 87.8431C79.7501 87.5826 79.8964 87.2293 79.8964 86.861C79.8964 86.4926 79.7501 86.1394 79.4896 85.8789C79.2291 85.6184 78.8759 85.4721 78.5075 85.4721Z" fill="white"/>
<path d="M54.0705 76.4777H54.0631C53.851 76.4784 53.6409 76.4372 53.4448 76.3566C53.2487 76.276 53.0704 76.1574 52.9202 76.0077C52.77 75.8581 52.6509 75.6802 52.5695 75.4844C52.4882 75.2885 52.4464 75.0786 52.4464 74.8665C52.4444 74.4995 52.2972 74.1481 52.037 73.8892C51.7767 73.6304 51.4246 73.4851 51.0575 73.4851H51.0501C50.8677 73.486 50.6873 73.5229 50.5191 73.5936C50.351 73.6643 50.1984 73.7674 50.0702 73.8971C49.9419 74.0268 49.8404 74.1804 49.7715 74.3493C49.7026 74.5182 49.6676 74.699 49.6686 74.8814C49.6742 76.0536 50.1353 77.1554 50.9686 77.9814C51.4556 78.4647 52.0427 78.8017 52.6742 79.0128L52.6779 79.8406C52.6798 80.2077 52.827 80.5591 53.0873 80.8179C53.3475 81.0768 53.6997 81.2221 54.0668 81.2221H54.0723C54.4403 81.2206 54.7927 81.0731 55.0521 80.812C55.3115 80.5509 55.4566 80.1975 55.4556 79.8295L55.4519 79.011C56.0964 78.7962 56.6927 78.4517 57.1834 77.9554C58.0112 77.1221 58.4631 76.0165 58.4575 74.8425C58.4566 74.2652 58.3412 73.6938 58.1181 73.1614C57.895 72.6289 57.5685 72.146 57.1575 71.7406C56.3419 70.9282 55.2383 70.471 54.0871 70.4684L54.076 70.4665H54.0631C53.851 70.4673 53.6409 70.4261 53.4448 70.3455C53.2487 70.2649 53.0704 70.1463 52.9202 69.9966C52.77 69.8469 52.6509 69.6691 52.5695 69.4733C52.4882 69.2774 52.4464 69.0675 52.4464 68.8554C52.4447 68.6428 52.4851 68.4319 52.5653 68.2349C52.6455 68.0379 52.7639 67.8588 52.9137 67.7078C53.0634 67.5568 53.2416 67.437 53.4379 67.3552C53.6343 67.2735 53.8448 67.2314 54.0575 67.2314H54.0631C54.2751 67.2306 54.4852 67.2718 54.6813 67.3524C54.8774 67.433 55.0557 67.5516 55.2059 67.7013C55.3561 67.851 55.4752 68.0288 55.5566 68.2246C55.6379 68.4205 55.6797 68.6304 55.6797 68.8425C55.6817 69.2095 55.8289 69.5609 56.0891 69.8198C56.3494 70.0786 56.7015 70.224 57.0686 70.2239H57.076C57.444 70.222 57.7963 70.074 58.0553 69.8126C58.3143 69.5511 58.459 69.1975 58.4575 68.8295C58.4566 68.2522 58.3412 67.6808 58.1181 67.1484C57.895 66.616 57.5685 66.1331 57.1575 65.7277C56.6763 65.2567 56.0925 64.9037 55.4519 64.6962L55.4482 63.8999C55.4473 63.5322 55.3005 63.1798 55.0401 62.9202C54.7798 62.6605 54.4271 62.5147 54.0593 62.5147H54.0538C53.8714 62.5154 53.6909 62.5521 53.5227 62.6225C53.3545 62.693 53.2018 62.7959 53.0733 62.9254C52.9449 63.0549 52.8432 63.2084 52.7741 63.3772C52.7049 63.546 52.6697 63.7267 52.6705 63.9091L52.6723 64.698C52.0297 64.9128 51.4334 65.2591 50.9427 65.7536C50.5348 66.1626 50.2121 66.6486 49.9934 67.1833C49.7747 67.7179 49.6643 68.2907 49.6686 68.8684C49.6742 70.0425 50.1353 71.1443 50.9686 71.9702C51.7927 72.7851 52.8816 73.2351 54.039 73.2425H54.0631C54.2751 73.2417 54.4852 73.2829 54.6813 73.3635C54.8774 73.4441 55.0557 73.5627 55.2059 73.7124C55.3561 73.8621 55.4752 74.0399 55.5566 74.2357C55.6379 74.4316 55.6797 74.6415 55.6797 74.8536C55.6814 75.0662 55.641 75.2771 55.5608 75.4741C55.4806 75.6711 55.3622 75.8502 55.2124 76.0012C55.0627 76.1522 54.8845 76.272 54.6882 76.3538C54.4918 76.4356 54.2831 76.4777 54.0705 76.4777Z" fill="white"/>
</svg>
