<svg width="75" height="73" viewBox="0 0 75 73" fill="none" xmlns="http://www.w3.org/2000/svg">
<path fill-rule="evenodd" clip-rule="evenodd" d="M31.8086 23.3952C33.3312 22.9892 34.4055 21.6012 34.4055 20.0187C34.4055 18.0948 32.8357 16.5252 30.9118 16.5252H30.3898C29.7444 16.5252 29.2119 15.9927 29.2119 15.3473C29.2119 14.7019 29.7444 14.1695 30.3898 14.1695H31.125C31.5176 14.1695 31.8529 14.3449 32.0825 14.6626C32.264 14.9066 32.5344 15.0693 32.835 15.1154C33.1357 15.1615 33.4424 15.0872 33.6887 14.9087C33.935 14.7302 34.101 14.4619 34.1509 14.1618C34.2007 13.8618 34.1303 13.5542 33.9549 13.3057C33.4427 12.5972 32.6643 12.0982 31.8086 11.923V11.0161C31.8086 10.709 31.6866 10.4145 31.4695 10.1974C31.2523 9.98023 30.9578 9.85824 30.6507 9.85824C30.3436 9.85824 30.0491 9.98023 29.832 10.1974C29.6148 10.4145 29.4928 10.709 29.4928 11.0161V11.9709C27.9702 12.3769 26.896 13.7649 26.896 15.3473C26.896 17.2711 28.4658 18.8409 30.3896 18.8409H30.9117C31.5572 18.8409 32.0895 19.3733 32.0895 20.0188C32.0895 20.6643 31.5572 21.1967 30.9117 21.1967H30.1764C29.7838 21.1967 29.4487 21.0212 29.219 20.7035C29.0375 20.4595 28.7671 20.2968 28.4664 20.2507C28.1658 20.2047 27.8591 20.2789 27.6128 20.4574C27.3665 20.6359 27.2004 20.9042 27.1506 21.2043C27.1008 21.5043 27.1712 21.8119 27.3466 22.0604C27.8588 22.7688 28.6372 23.2681 29.4928 23.4431V24.35C29.4928 24.6571 29.6148 24.9516 29.832 25.1688C30.0491 25.3859 30.3436 25.5079 30.6507 25.5079C30.9578 25.5079 31.2523 25.3859 31.4695 25.1688C31.6866 24.9516 31.8086 24.6571 31.8086 24.35V23.3952ZM21.5572 48.1623C14.9695 48.1623 9.62937 53.5026 9.62937 60.0902C9.62937 66.6778 14.9697 72.018 21.5572 72.018C28.1448 72.018 33.4849 66.6777 33.4851 60.0902C33.4851 53.5026 28.1448 48.1624 21.5572 48.1623ZM28.5424 57.3838L20.2043 65.7219C19.4384 66.4878 18.1731 66.3674 17.5584 65.487L13.9645 60.9643C13.3705 60.217 13.4945 59.1295 14.2419 58.5355C14.9892 57.9415 16.0766 58.0655 16.6707 58.8129L19.1257 61.9025L26.0933 54.9347C26.7695 54.2585 27.8662 54.2585 28.5424 54.9347C29.2186 55.611 29.2186 56.7076 28.5424 57.3838ZM6.45707 0.648438C3.36393 0.648438 0.833374 3.17884 0.833374 6.27198V12.2263H12.0805V6.27198C12.0805 3.17899 9.54991 0.648438 6.45707 0.648438ZM69.0248 69.984H31.8021C34.2774 67.4215 35.8008 63.9338 35.8008 60.0902C35.8008 59.5204 35.7664 58.9585 35.7013 58.4062H74.6484V64.3606C74.6484 67.4535 72.1178 69.984 69.0248 69.984ZM60.7946 0.648438H12.0507C13.4979 2.08798 14.3962 4.07881 14.3962 6.27198V47.7761C16.5002 46.5498 18.9466 45.8467 21.5572 45.8467C25.8428 45.8467 29.6865 47.7404 32.2977 50.7361V46.7215C32.2977 46.2431 32.6877 45.853 33.1661 45.853H37.335C37.8134 45.853 38.2035 46.2431 38.2035 46.7215V56.0905H42.6108V41.3149C42.6108 40.8365 43.0009 40.4465 43.4792 40.4465H47.6482C48.1265 40.4465 48.5166 40.8365 48.5166 41.3149V56.0903H52.9239V35.9089C52.9239 35.4305 53.314 35.0404 53.7923 35.0404H57.9613C58.4395 35.0404 58.8297 35.4305 58.8297 35.9089V56.0905H66.4182V6.27198C66.418 3.17899 63.8876 0.648438 60.7946 0.648438ZM19.4337 17.6831C19.4337 11.4881 24.4558 6.46607 30.6507 6.46607C36.8457 6.46607 41.8677 11.4881 41.8677 17.6831C41.8677 23.878 36.8457 28.9 30.6507 28.9C24.4558 28.9 19.4337 23.878 19.4337 17.6831ZM54.0974 27.1855L52.4244 32.1C52.3764 32.2446 52.3003 32.3783 52.2004 32.4934C52.1005 32.6084 51.9789 32.7026 51.8425 32.7705C51.7061 32.8384 51.5576 32.8786 51.4056 32.8889C51.2536 32.8992 51.101 32.8793 50.9567 32.8304C50.8124 32.7815 50.6792 32.7046 50.5647 32.604C50.4503 32.5034 50.3568 32.3812 50.2898 32.2444C50.2227 32.1076 50.1834 31.9588 50.174 31.8067C50.1647 31.6547 50.1855 31.5022 50.2353 31.3582L50.9355 29.3011L25.6132 43.921C25.3483 44.0718 25.0344 44.1118 24.7401 44.0322C24.4458 43.9526 24.1949 43.7599 24.0421 43.4961C23.8893 43.2323 23.847 42.9187 23.9244 42.6239C24.0018 42.329 24.1927 42.0766 24.4553 41.9219L49.779 27.3013L47.6531 26.8804C47.504 26.8513 47.3621 26.7932 47.2355 26.7092C47.1089 26.6253 47 26.5172 46.9152 26.3912C46.8304 26.2652 46.7712 26.1237 46.741 25.9748C46.7109 25.826 46.7104 25.6726 46.7395 25.5235C46.7686 25.3744 46.8268 25.2325 46.9107 25.1059C46.9946 24.9793 47.1027 24.8705 47.2287 24.7856C47.3547 24.7008 47.4962 24.6416 47.6451 24.6115C47.794 24.5813 47.9473 24.5808 48.0964 24.6099L53.2417 25.6287C53.9534 25.7674 54.3584 26.5161 54.0974 27.1855ZM61.1279 20.7941H46.7964C46.4893 20.7941 46.1948 20.6722 45.9776 20.455C45.7605 20.2379 45.6385 19.9434 45.6385 19.6363C45.6385 19.3292 45.7605 19.0347 45.9776 18.8175C46.1948 18.6004 46.4893 18.4784 46.7964 18.4784H61.1279C61.435 18.4784 61.7295 18.6004 61.9467 18.8175C62.1638 19.0347 62.2858 19.3292 62.2858 19.6363C62.2858 19.9434 62.1638 20.2379 61.9467 20.455C61.7295 20.6722 61.435 20.7941 61.1279 20.7941ZM61.1279 15.7391H46.7964C46.4893 15.7391 46.1948 15.6171 45.9776 15.4C45.7605 15.1828 45.6385 14.8883 45.6385 14.5812C45.6385 14.2741 45.7605 13.9796 45.9776 13.7625C46.1948 13.5453 46.4893 13.4234 46.7964 13.4234H61.1279C61.435 13.4234 61.7295 13.5453 61.9467 13.7625C62.1638 13.9796 62.2858 14.2741 62.2858 14.5812C62.2858 14.8883 62.1638 15.1828 61.9467 15.4C61.7295 15.6171 61.435 15.7391 61.1279 15.7391ZM61.1279 10.684H51.59C51.2829 10.684 50.9884 10.562 50.7713 10.3448C50.5541 10.1277 50.4321 9.83316 50.4321 9.52607C50.4321 9.21898 50.5541 8.92447 50.7713 8.70732C50.9884 8.49018 51.2829 8.36819 51.59 8.36819H61.1279C61.435 8.36819 61.7295 8.49018 61.9467 8.70732C62.1638 8.92447 62.2858 9.21898 62.2858 9.52607C62.2858 9.83316 62.1638 10.1277 61.9467 10.3448C61.7295 10.562 61.435 10.684 61.1279 10.684Z" fill="#000D51"/>
</svg>
